PathFileType	4	(X/Y/Z)	 s10c0401.trc
DataRate	CameraRate	NumFrames	NumMarkers	Units	OrigDataRate	OrigDataStartFrame	OrigNumFrames
200	200	4	50	mm	200	1501	2000
Frame#	Time	racr			lacr			c7			jug			rlel			rdr			llel			ldr			s2			lic			ric			lasi			rasi			rpsi			lpsi			rgt			lgt			rth1			rth2			rth3			rth4			rlfc			rmfc			rsh1			rsh2			rsh3			rsh4			rlmal			rmmal			rcal			rtoe			rmt5			lth1			lth2			lth4			lth3			llfc			lmfc			llmal			lmmal			lcal			lmt5			lsh1			lsh2			lsh3			lsh4			ltoe			SBIKE			LBIKE			RBIKE			
		X1	Y1	Z1	X2	Y2	Z2	X3	Y3	Z3	X4	Y4	Z4	X5	Y5	Z5	X6	Y6	Z6	X7	Y7	Z7	X8	Y8	Z8	X9	Y9	Z9	X10	Y10	Z10	X11	Y11	Z11	X12	Y12	Z12	X13	Y13	Z13	X14	Y14	Z14	X15	Y15	Z15	X16	Y16	Z16	X17	Y17	Z17	X18	Y18	Z18	X19	Y19	Z19	X20	Y20	Z20	X21	Y21	Z21	X22	Y22	Z22	X23	Y23	Z23	X24	Y24	Z24	X25	Y25	Z25	X26	Y26	Z26	X27	Y27	Z27	X28	Y28	Z28	X29	Y29	Z29	X30	Y30	Z30	X31	Y31	Z31	X32	Y32	Z32	X33	Y33	Z33	X34	Y34	Z34	X35	Y35	Z35	X36	Y36	Z36	X37	Y37	Z37	X38	Y38	Z38	X39	Y39	Z39	X40	Y40	Z40	X41	Y41	Z41	X42	Y42	Z42	X43	Y43	Z43	X44	Y44	Z44	X45	Y45	Z45	X46	Y46	Z46	X47	Y47	Z47	X48	Y48	Z48	X49	Y49	Z49	X50	Y50	Z50	
1501	7.5050	669.702950	1308.332822	-55.741499	656.483493	1282.079457	-351.254133	644.262473	1324.026647	-200.861070	624.880951	1178.858998	-185.117502	531.166289	1092.282319	64.979622	625.481748	908.531708	9.926942	524.012810	1072.922982	-501.002502	644.476832	917.996074	-396.827721	103.494459	1158.595594	-211.507357	266.838927	1148.571455	-352.859257	281.676129	1143.018828	-52.848623	272.950111	1062.315718	-318.994981	270.503556	1060.942367	-70.801954	155.142895	1205.488788	-154.624494	156.741943	1216.199264	-263.203579	155.315356	1049.452125	-25.131480	156.758041	1040.382961	-399.634130	221.639900	909.842434	0.964175	284.701510	847.808970	-10.467822	306.992795	765.602957	-14.964190	315.681392	868.183642	-15.350716	357.643652	668.144119	-27.272950	354.754798	665.050223	-145.023080	255.011248	612.041118	-1.683132	203.797402	542.326875	-19.986462	125.142784	506.795721	-27.946442	225.623660	522.916171	-44.851120	41.536152	450.126112	-46.112559	69.122334	443.317314	-125.913665	7.209586	489.188076	-95.447468	79.226705	255.567835	-98.062141	23.401753	321.069947	-37.066746	233.059708	935.798474	-409.727299	307.371634	893.060997	-395.976468	331.110860	918.058288	-382.932720	351.261554	816.216530	-392.366725	432.145180	724.846899	-366.545517	427.855849	719.488431	-250.043231	244.540882	392.428336	-368.706893	252.952740	397.400827	-283.383448	180.797267	360.717745	-328.875205	352.533641	303.860848	-384.356920	365.474083	619.655545	-395.666712	350.319044	535.039809	-378.239183	294.467933	466.082928	-379.806435	372.583632	528.714716	-347.981507	432.847219	330.087952	-323.646399	-204.447191	834.640021	-224.696810	-78.293644	81.799756	-423.706654	-102.689374	80.602256	-24.409423	
1502	7.5100	668.841886	1310.100948	-54.270933	657.226474	1281.872772	-349.118517	643.807216	1324.525062	-199.433534	625.566537	1179.911451	-184.447163	531.520139	1092.470256	65.384610	625.723831	908.698541	10.830084	524.217770	1074.113719	-499.809655	644.732709	918.087859	-396.960297	103.024730	1157.783318	-211.980114	267.300543	1146.566452	-353.563926	281.644298	1142.728283	-53.619256	273.014753	1060.550007	-320.013376	270.583579	1060.708899	-72.797156	154.126900	1203.758012	-154.001592	155.387547	1215.305108	-263.112895	157.306907	1049.457255	-25.945963	155.408403	1038.028804	-399.938691	224.580458	910.905869	0.430785	288.989169	850.167437	-10.849397	312.424635	768.282334	-15.273601	319.858784	871.221835	-15.428596	364.746865	671.708283	-27.994704	360.298849	669.885508	-145.929065	262.587697	616.208746	-2.028696	209.069089	547.964383	-20.377229	129.755813	514.185452	-27.797642	229.976023	528.748302	-46.120103	43.594714	460.725221	-45.936182	71.085529	453.461558	-125.903078	9.566749	499.971450	-95.358553	80.206925	266.064149	-98.044326	24.750440	331.985154	-37.008228	230.749316	932.070375	-409.978980	303.839895	887.129817	-395.582499	328.412424	912.232944	-384.212616	345.953777	809.488094	-392.727506	423.758654	714.838611	-366.413073	421.571620	708.612852	-251.267311	242.632299	380.721848	-368.540757	251.064135	385.354486	-283.118839	179.228923	349.058316	-328.759720	351.138435	292.707885	-384.367637	359.227582	608.982330	-395.689509	345.585719	524.056584	-377.900903	291.016419	454.103586	-379.769359	368.025497	518.303244	-347.575565	431.442175	319.235665	-323.693821	-204.411944	834.613387	-224.684375	-78.280248	81.769869	-423.701769	-102.702367	80.601622	-24.423578	
1503	7.5150	667.773961	1311.892484	-52.518072	658.059386	1281.596268	-346.727502	643.279897	1325.308683	-197.879065	626.506461	1181.381013	-184.470488	531.419880	1092.637597	65.839273	625.894193	908.931873	11.491942	524.551802	1075.242461	-498.671548	645.028660	918.108816	-397.023051	102.749597	1156.486227	-212.458417	267.628666	1144.400811	-354.398282	281.533322	1142.297611	-54.865173	273.261547	1058.636388	-321.291140	271.005758	1060.394701	-74.841358	154.984840	1203.214582	-155.684966	156.808840	1212.924436	-266.038262	159.556064	1049.212529	-26.782523	154.060417	1035.349585	-400.317493	228.458466	912.596991	0.809326	293.316934	852.467989	-11.144816	317.924816	770.920770	-15.515789	323.514251	873.827504	-16.532004	371.886571	675.182546	-28.606969	364.844309	674.185436	-146.913619	269.049542	620.603188	-2.402426	214.125334	553.764000	-20.951027	133.694053	521.852020	-27.551534	233.181291	534.246127	-47.898809	46.070507	471.333059	-45.809828	73.249056	463.625424	-125.750672	12.140786	510.692238	-95.343757	82.043957	276.676215	-98.091177	26.812297	342.742935	-36.939758	228.603455	927.962545	-410.354696	300.547156	881.272552	-396.024819	325.740193	905.671511	-384.685952	340.749721	802.405554	-392.992959	415.499886	705.472882	-366.430572	414.503742	697.690936	-252.545049	240.194112	369.372887	-368.593637	248.489794	373.705013	-282.722994	177.083713	337.708272	-328.611535	349.030521	281.805291	-384.412874	352.054716	599.420017	-395.615369	340.302094	514.283930	-378.126885	287.167144	443.288448	-379.689074	363.129341	508.929414	-348.061889	429.355921	308.361510	-323.765564	-204.413165	834.613463	-224.690364	-78.285552	81.758265	-423.703177	-102.680599	80.586660	-24.411665	
1504	7.5200	666.377198	1313.728937	-50.579684	658.959290	1281.097084	-344.268441	642.696130	1326.012638	-196.200660	627.275021	1182.555747	-184.038591	531.107471	1092.730385	66.372921	625.873833	909.052753	11.753345	525.003715	1076.297426	-497.522756	645.415114	918.133834	-396.981633	102.704700	1154.737209	-212.811258	267.839786	1142.099110	-355.365527	281.473836	1141.693778	-56.026367	273.586174	1056.690737	-322.745221	271.463796	1060.111192	-76.562914	154.319056	1202.485145	-155.607684	156.813697	1210.914583	-267.562829	161.724211	1048.756492	-27.486020	152.652372	1032.131804	-400.711738	231.913125	913.787368	0.755157	297.595438	854.716085	-11.259237	323.154237	773.502223	-15.578904	327.524862	876.553787	-17.126571	379.090815	678.531400	-29.079913	369.658001	678.234069	-147.933778	275.580705	625.292200	-2.720028	218.859211	559.501855	-21.757922	137.792588	529.424511	-27.701418	237.201882	540.138647	-49.378839	48.738140	481.958165	-45.712758	75.805655	474.013564	-125.611034	14.979581	521.359724	-95.344338	84.671414	287.349112	-97.892452	29.523808	353.490507	-36.801014	227.027345	923.550320	-411.151141	297.212950	874.942607	-396.397441	323.057820	898.825590	-385.274357	335.474859	795.188765	-393.000151	407.130063	696.146127	-366.107597	407.394448	687.209382	-253.689529	237.267442	358.489590	-368.517302	245.350043	362.209659	-282.382284	174.287930	326.812310	-328.653021	346.335741	271.057040	-384.434138	344.560682	590.546030	-396.105649	334.437974	505.396098	-378.928305	282.664629	433.165342	-379.641790	357.803041	500.126464	-348.960488	426.686145	297.600662	-323.743950	-204.437654	834.678931	-224.716370	-78.284724	81.756056	-423.700114	-102.695182	80.577131	-24.433523	
